<svg width="85" height="61" viewBox="0 0 85 61" fill="none" xmlns="http://www.w3.org/2000/svg">
<path d="M54.0957 39.8887H60.0597C57.2699 47.9677 54.8878 51.8367 46.9614 55.1398C45.6385 55.6913 44.8902 57.0993 45.172 58.5045C45.4535 59.907 46.6857 60.916 48.1173 60.916H48.1233C64.6595 60.8866 74.1582 54.257 80.8936 38.0524C83.0434 32.9626 84.1348 27.5153 84.1348 21.8652C84.1348 13.1761 81.5063 8.44438 77.4991 2.21668C76.9476 1.35727 75.9942 0.837891 74.9735 0.837891H54.0957C49.1263 0.837891 45.084 4.88025 45.084 9.84961V30.877C45.084 35.8463 49.1263 39.8887 54.0957 39.8887ZM9.03711 39.8887H15.0011C12.2113 47.9677 9.82924 51.8367 1.90283 55.1398C0.57991 55.6913 -0.168358 57.0993 0.113411 58.5045C0.394875 59.907 1.62708 60.916 3.05874 60.916H3.06474C19.601 60.8866 29.0996 54.257 35.835 38.0524C37.9849 32.9626 39.0762 27.5153 39.0762 21.8652C39.0762 13.1761 36.4478 8.44438 32.4405 2.21668C31.889 1.35727 30.9356 0.837891 29.9149 0.837891H9.03711C4.06775 0.837891 0.0253906 4.88025 0.0253906 9.84961V30.877C0.0253906 35.8463 4.06775 39.8887 9.03711 39.8887Z" fill="#BDBDBD"/>
</svg>
