<svg width="85" height="61" viewBox="0 0 85 61" fill="none" xmlns="http://www.w3.org/2000/svg">
<path d="M30.4883 21.436H24.5243C27.3141 13.357 29.6962 9.488 37.6226 6.1849C38.9455 5.63339 39.6938 4.22546 39.412 2.82023C39.1305 1.4177 37.8983 0.408691 36.4667 0.408691H36.4606C19.9244 0.43813 10.4258 7.06775 3.69043 23.2723C1.54054 28.3621 0.449219 33.8094 0.449219 39.4595C0.449219 48.1486 3.07764 52.8803 7.08485 59.108C7.63636 59.9674 8.5898 60.4868 9.61053 60.4868H30.4883C35.4576 60.4868 39.5 56.4445 39.5 51.4751V30.4478C39.5 25.4784 35.4576 21.436 30.4883 21.436ZM75.5469 21.436H69.5829C72.3727 13.357 74.7547 9.488 82.6812 6.1849C84.0041 5.63339 84.7523 4.22546 84.4706 2.82023C84.1891 1.4177 82.9569 0.408691 81.5252 0.408691H81.5192C64.983 0.43813 55.4844 7.06775 48.749 23.2723C46.5991 28.3621 45.5078 33.8094 45.5078 39.4595C45.5078 48.1486 48.1362 52.8803 52.1434 59.108C52.695 59.9674 53.6484 60.4868 54.6691 60.4868H75.5469C80.5162 60.4868 84.5586 56.4445 84.5586 51.4751V30.4478C84.5586 25.4784 80.5162 21.436 75.5469 21.436Z" fill="#BDBDBD"/>
</svg>
