<svg width="80" height="81" viewBox="0 0 80 81" fill="none" xmlns="http://www.w3.org/2000/svg">
<circle cx="40" cy="40.9165" r="40" fill="#20AFFA"/>
<path d="M32 51.9531V30.9171C31.9999 30.5652 32.0926 30.2195 32.2689 29.9149C32.4451 29.6103 32.6986 29.3576 33.0038 29.1823C33.3089 29.007 33.6549 28.9153 34.0068 28.9165C34.3587 28.9177 34.7041 29.0117 35.008 29.1891L53.038 39.7091C53.3397 39.8853 53.5899 40.1375 53.7639 40.4405C53.9378 40.7435 54.0293 41.0867 54.0293 41.4361C54.0293 41.7855 53.9378 42.1287 53.7639 42.4317C53.5899 42.7347 53.3397 42.9869 53.038 43.1631L35.008 53.6811C34.7041 53.8585 34.3587 53.9525 34.0068 53.9537C33.6549 53.9549 33.3089 53.8632 33.0038 53.6879C32.6986 53.5126 32.4451 53.2599 32.2689 52.9553C32.0926 52.6507 31.9999 52.305 32 51.9531Z" fill="#FFE1E1"/>
</svg>
